<?xml version="1.0" encoding="UTF-8" standalone="no"?>
<!DOCTYPE svg PUBLIC "-//W3C//DTD SVG 1.1//EN" "http://www.w3.org/Graphics/SVG/1.1/DTD/svg11.dtd">
<svg width="100%" height="100%" viewBox="0 0 416 404" version="1.1" xmlns="http://www.w3.org/2000/svg" xmlns:xlink="http://www.w3.org/1999/xlink" xml:space="preserve" xmlns:serif="http://www.serif.com/" style="fill-rule:evenodd;clip-rule:evenodd;stroke-linejoin:round;stroke-miterlimit:2;">
    <g transform="matrix(1,0,0,1,-575.253501,-278.682135)">
        <g transform="matrix(1.416992,0,0,1.416992,57,126)">
            <path d="M520.055,112.493C520.061,111.823 520.052,111.154 520.058,110.485C520.059,110.327 519.777,108.019 521.541,107.77C522.37,107.654 529.193,108.092 530.533,108.263C541.812,109.7 543.44,110.077 544.544,110.332C551.958,112.049 551.969,111.949 552.606,112.124C576.886,118.81 590.916,128.306 597.311,132.787C622.143,150.188 635.363,172.363 635.915,173.245C636.337,173.919 640.399,180.406 641.08,181.737C647.239,193.786 649.985,201.328 650.113,201.654C652.01,206.486 654.765,216.64 655.214,218.572C656.478,224.014 656.339,224.039 656.449,224.512C656.925,226.549 658.925,235.108 659.224,250.507C659.29,253.892 659.675,273.662 654.93,292.612C649.431,314.575 642.286,326.872 641.546,328.522C640.557,330.731 635.221,339.668 633.742,341.667C628.379,348.918 617.898,365.929 593.746,381.879C585.823,387.112 582.597,388.599 576.523,391.55C574.186,392.685 572.875,393.065 572.996,390.473C573.319,383.527 572.916,342.743 573.033,337.499C573.184,330.794 572.393,328.411 574.328,326.339C575.538,325.042 575.577,325.101 576.818,323.815C586.509,313.773 591.767,304.718 595.787,295.628C596.831,293.268 602.556,280.326 604.072,264.455C605.468,249.838 604.052,243.474 603.8,241.458C603.523,239.248 601.911,226.389 596.036,214.714C590.723,204.156 590.151,203.851 586.896,199.206C575.486,182.924 559.937,173.352 551.487,169.53C542.872,165.632 536.077,163.658 528.496,162.532C521.252,161.457 520.668,162.072 520.21,160.605C520.105,160.267 519.984,155.73 519.992,155.496C520.233,147.762 519.827,121.576 520.055,112.493Z" style="fill:white;"/>
        </g>
        <g transform="matrix(1.416992,0,0,1.416992,57,126)">
            <path d="M500.51,107.899C501.17,107.933 501.833,107.84 502.493,107.874C502.524,107.876 504.465,107.805 504.79,109.442C504.86,109.799 504.825,109.804 504.852,157.5C504.853,159.317 505.46,161.603 502.535,161.85C501.645,161.926 495.744,162.425 491.496,163.482C485.95,164.863 485.953,164.826 480.543,166.645C469.444,170.377 458.685,177.898 453.849,181.912C438.653,194.525 420.486,220.312 420.214,252.5C420.053,271.589 424.71,282.895 425.456,285.512C428.324,295.571 437.126,313.213 449.209,324.812C451.496,327.008 452.114,327.071 452.023,333.503C451.973,337.076 451.977,390.041 451.947,390.572C451.936,390.754 451.836,392.519 450.516,392.348C449.226,392.181 437.147,385.869 431.29,381.821C423.838,376.672 418.918,372.924 412.823,367.159C398.167,353.298 390.717,340.35 388.718,337.365C385.604,332.713 380.159,321.833 378.371,317.552C376.021,311.924 375.439,310.244 375.215,309.597C373.141,303.608 373.331,303.567 371.478,297.507C369.974,292.587 370.428,292.49 369.309,288.551C367.447,281.992 365.965,264.782 365.954,264.475C365.482,251.489 365.929,245.145 366.047,243.468C369.203,198.661 391.348,165.366 410.719,146.732C432.405,125.872 451.718,119.411 455.623,117.774C461.895,115.147 461.94,115.313 468.429,113.277C474.341,111.422 474.423,111.797 480.443,110.262C481.898,109.891 493.787,108.078 500.51,107.899Z" style="fill:white;"/>
        </g>
    </g>
</svg>
